<svg id="Layer_1" height="512" viewBox="0 0 512 512" width="512" xmlns="http://www.w3.org/2000/svg" data-name="Layer 1"><path d="m482.25 362.47v106.48h-66.54v-106.48h13.31z" fill="#f4b844"/><path d="m482.25 149.53v106.47h-53.23-13.31v-106.47h13.31z" fill="#f4b844"/><path d="m429.02 256v106.47h-266.18v-106.47z" fill="#fedb41"/><path d="m429.02 43.05v106.48h-266.18v-106.48z" fill="#fedb41"/><path d="m349.16 362.47h66.55v106.48h-66.55z" fill="#00ceb4"/><path d="m349.16 149.53h66.55v106.47h-66.55z" fill="#00ceb4"/><path d="m349.16 362.47v106.48h-266.18v-106.48z" fill="#f4b844"/><path d="m349.16 149.53v106.47h-266.18v-106.47z" fill="#f4b844"/><path d="m96.29 256h66.55v106.47h-66.55z" fill="#00efd1"/><path d="m96.29 43.05h66.55v106.48h-66.55z" fill="#00efd1"/><path d="m96.29 256v106.47h-13.31-53.23v-106.47h53.23z" fill="#fedb41"/><path d="m96.29 43.05v106.48h-13.31-53.23v-106.48z" fill="#fedb41"/><path d="m339.18 69.01a27.28 27.28 0 1 1 -27.28 27.28 27.284 27.284 0 0 1 27.28-27.28z" fill="#00efd1"/><path d="m339.18 281.95a27.285 27.285 0 1 1 -27.28 27.29 27.292 27.292 0 0 1 27.28-27.29z" fill="#00efd1"/><g fill="#00ceb4"><path d="m172.82 175.48a27.285 27.285 0 1 1 -27.29 27.28 27.282 27.282 0 0 1 27.29-27.28z"/><path d="m172.82 388.43a27.28 27.28 0 1 1 -27.29 27.28 27.275 27.275 0 0 1 27.29-27.28z"/></g></svg>