<svg id="Layer_1" height="512" viewBox="0 0 512 512" width="512" xmlns="http://www.w3.org/2000/svg" data-name="Layer 1"><path d="m406.45 297.33a97.465 97.465 0 1 1 -105.71 97.13c0-2.3.08-4.57.24-6.83a97.594 97.594 0 0 1 97.45-90.62q4.05 0 8.02.32z" fill="#00efd1"/><path d="m443.07 337.85v91.79h-6.07-63.11v-91.79z" fill="#fedb41"/><path d="m437 429.64v22.73h-75.95a11.369 11.369 0 0 1 -11.36-11.36c0-.2 0-.39.01-.59a11.373 11.373 0 0 1 11.35-10.78z" fill="#f4b844"/><path d="m406.45 297.31v.02q-3.975-.315-8.02-.32a97.594 97.594 0 0 0 -97.45 90.62l-.23-.01h-258.5a26.377 26.377 0 0 1 -26.37-26.38v-233.11h390.57z" fill="#00acea"/><path d="m406.45 78.33v49.8h-390.57v-49.8a26.375 26.375 0 0 1 26.37-26.37h39.36v27.46h50.25v-27.46h159.12v27.46h50.25v-27.46h38.84a26.377 26.377 0 0 1 26.38 26.37z" fill="#00efd1"/><path d="m373.89 337.85v91.79h-12.84a11.373 11.373 0 0 0 -11.35 10.78h-.01v-91.2a11.361 11.361 0 0 1 11.36-11.37z" fill="#00acea"/><path d="m341.23 51.96v27.46h-50.25v-27.46-31.87h50.25z" fill="#fedb41"/><path d="m131.86 51.96v27.46h-50.25v-27.46-31.87h50.25z" fill="#fedb41"/><g fill="#00efd1"><path d="m330.75 239.47h42.2v42.21h-42.2z"/><path d="m330.75 169.12h42.2v42.21h-42.2z"/><path d="m260.4 239.47h42.21v42.21h-42.21z"/><path d="m260.4 169.12h42.21v42.21h-42.21z"/><path d="m190.06 309.81h42.21v42.21h-42.21z"/><path d="m190.06 239.47h42.21v42.21h-42.21z"/><path d="m190.06 169.12h42.21v42.21h-42.21z"/><path d="m119.72 309.81h42.2v42.21h-42.2z"/><path d="m119.72 239.47h42.2v42.21h-42.2z"/><path d="m119.72 169.12h42.2v42.21h-42.2z"/><path d="m49.37 309.81h42.21v42.21h-42.21z"/><path d="m49.37 239.47h42.21v42.21h-42.21z"/><path d="m49.37 169.12h42.21v42.21h-42.21z"/></g></svg>