<svg id="Layer_1" height="512" viewBox="0 0 512 512" width="512" xmlns="http://www.w3.org/2000/svg" data-name="Layer 1"><path d="m142 19v379.81.19h282.04 24.96v-380z" fill="#00acea"/><path d="m424.04 398.82v94.03h-314.14a47.014 47.014 0 0 1 -47.02-47.02c0-.65.01-1.29.04-1.93a47.014 47.014 0 0 1 46.98-45.08z" fill="#00efd1"/><path d="m141.7 398.81v.01h-31.8a47.014 47.014 0 0 0 -46.98 45.08h-.04v-377.73a47.016 47.016 0 0 1 47.01-47.02h31.81z" fill="#fedb41"/><path d="m366.02 19.15v263.87l-29.68-22.61v-241.26z" fill="#00efd1"/><path d="m336.34 19.15v241.26l-40.34-30.73-40.34 30.73v-241.26z" fill="#fedb41"/><path d="m255.66 19.15v241.26l-29.68 22.61v-263.87z" fill="#00efd1"/></svg>